<svg width="1295" height="471" viewBox="0 0 1295 471" fill="none" xmlns="http://www.w3.org/2000/svg">
<path d="M501.241 138.233C493.901 121.872 482.532 113.69 467.134 113.69H444.034L358.674 301.01C355.666 307.629 354.164 314.365 354.164 321.222C354.164 328.08 357.201 335.812 363.277 344.412C369.351 353.014 379.397 357.315 393.415 357.315C407.433 357.315 417.506 349.135 423.642 332.772L430.499 314.365H504.129L510.986 332.772C517.122 349.135 527.318 357.315 541.574 357.315C555.831 357.315 565.906 353.046 571.802 344.502C577.696 335.961 580.644 328.26 580.644 321.403C580.644 314.546 579.08 307.75 575.952 301.01L501.241 138.233ZM451.793 256.616L467.313 214.389L482.834 256.616H451.793ZM662.975 299.928H741.295V328.622C741.295 347.75 733.835 357.315 718.919 357.315H627.243C603.421 357.315 591.511 346.848 591.511 325.915V113.69H627.243C651.064 113.69 662.975 124.157 662.975 145.09V299.928ZM823.413 299.928H901.734V328.622C901.734 347.75 894.273 357.315 879.357 357.315H787.681C763.86 357.315 751.95 346.848 751.95 325.915V113.69H787.681C811.502 113.69 823.413 124.157 823.413 145.09V299.928ZM1024.64 113.69H1060.37V325.915C1060.37 346.848 1048.46 357.315 1024.64 357.315H988.906V145.09C988.906 124.157 1000.82 113.69 1024.64 113.69ZM1294.12 113.69V325.915C1294.12 346.848 1282.21 357.315 1258.39 357.315C1245.16 357.315 1234.69 352.744 1226.99 343.599L1146.87 248.315V325.915C1146.87 346.848 1134.96 357.315 1111.14 357.315H1075.4V113.87L1111.14 113.69C1126.41 113.572 1137.36 118.503 1143.98 128.488L1222.66 222.328V145.09C1222.66 124.157 1234.57 113.69 1258.39 113.69H1294.12Z" fill="url(#paint0_linear_2092_84)"/>
<path d="M59.5649 346.052C58.52 342.476 57.5845 339.54 56.6977 336.963C56.4021 336.104 56.1121 335.287 55.8237 334.498C54.4391 330.699 53.1279 327.166 51.9209 323.963C51.3184 322.362 50.7405 320.841 50.1929 319.41C49.0983 316.549 48.1237 314.045 47.3006 311.958C46.306 309.437 45.5665 307.613 45.0687 306.412C44.9486 306.122 44.8095 305.783 44.7218 305.581C43.5691 302.852 42.0506 298.995 40.3755 294.234C39.5375 291.854 38.6604 289.248 37.7705 286.446C37.3256 285.043 36.8786 283.592 36.4301 282.096C32.3994 268.63 28.377 251.467 26.7605 233.22C26.3155 228.181 25.9891 222.334 25.9794 215.769C25.9727 211.394 26.1067 206.698 26.4392 201.711C26.6886 197.972 27.0494 194.068 27.5472 190.009C28.0229 186.137 28.6418 182.105 29.387 177.96C29.427 177.697 29.444 177.585 29.4547 177.52C29.4629 177.474 29.466 177.437 29.4742 177.392C29.4742 177.354 29.4876 177.329 29.4876 177.294C30.0865 173.456 30.9179 169.31 32.0669 164.955C48.3049 103.577 107.337 79.99 108.597 79.5517C108.597 79.5517 108.633 79.5394 108.67 79.5266C112.045 78.2913 113.536 74.465 111.959 71.2375C111.36 70.0146 110.981 68.8896 110.725 67.8745C108.584 59.1918 113.818 51.7946 113.182 44.1419C113.128 43.4829 113.022 42.8692 113.022 42.8692C113.012 42.8065 112.996 42.7136 112.973 42.5987C112.726 41.3306 112.17 38.4316 110.305 36.66C108.002 34.4748 104.564 34.8284 103.318 34.9588C103.318 34.9588 101.21 35.4022 99.0049 36.2895C27.6452 64.9837 10.2608 133.019 10.2608 133.019C-6.96204 182.467 4.15837 226.219 7.42178 238.377C15.0484 266.796 32.8002 303.083 41.366 317.607C43.1776 320.679 51.3378 334.18 59.9944 353.437C61.3025 356.349 62.5127 359.148 63.6622 361.85C63.5514 361.359 63.4123 360.837 63.2968 360.342C62.2314 355.763 61.0111 351.006 59.5649 346.052Z" fill="#005287"/>
<path d="M29.3789 178.022C29.4179 177.804 29.4354 177.608 29.4754 177.391C29.4764 177.386 29.459 177.493 29.4554 177.519C29.4446 177.584 29.4277 177.697 29.3876 177.959C29.3851 177.977 29.3815 178.007 29.3789 178.022Z" fill="#00AEEF"/>
<path d="M132.917 434.991C115.2 402.809 121.656 375.275 101.14 355.208C98.8892 353.008 92.2259 346.919 82.6764 336.93C77.5532 331.598 73.1638 326.697 67.2579 320.106C67.2579 320.106 59.7992 311.792 59.8603 302.596C59.871 301.007 60.1954 299.323 61.4496 297.877C62.9312 296.168 64.9455 295.928 69.5458 295.264C71.5585 294.975 74.9163 294.482 79.298 293.793C77.6573 292.938 74.7224 291.34 71.2937 289.009C30.9222 261.573 28.3224 205.139 28.1808 200.671C27.82 189.325 29.0327 180.336 29.3796 178.023C28.6391 182.143 28.0217 186.155 27.5485 190.009C27.0507 194.068 26.6894 197.972 26.4405 201.711C26.108 206.698 25.974 211.393 25.9807 215.769C25.991 222.334 26.3174 228.181 26.7618 233.22C28.3778 251.467 32.4008 268.629 36.4314 282.096C36.8799 283.592 37.3274 285.042 37.7719 286.446C38.6612 289.248 39.5383 291.854 40.3768 294.234C42.0519 298.995 43.5704 302.852 44.7231 305.58C44.8108 305.784 44.9499 306.122 45.07 306.412C45.5688 307.613 46.3073 309.437 47.3019 311.958C48.1251 314.045 49.0996 316.548 50.1943 319.41C50.7418 320.841 51.3192 322.362 51.9222 323.963C53.1292 327.165 54.4404 330.699 55.825 334.497C56.1134 335.287 56.4034 336.104 56.699 336.963C57.5868 339.54 58.5213 342.474 59.5677 346.052C61.0129 351.006 62.2322 355.762 63.2976 360.34C63.4131 360.837 63.5522 361.358 63.663 361.849C79.6188 399.288 81.9425 417.187 100.614 436.813C120.519 457.782 145.634 466.61 164.073 470.78C147.077 457.489 137.979 444.197 132.917 434.991Z" fill="#00AEEF"/>
<path d="M296.6 247.265C294.059 239.893 293.301 232.709 291.889 218.641C291.629 216.065 291.5 214.634 291.421 213.241C291.168 208.766 291.314 205.127 291.253 198.712C291.045 177.413 290.544 141.331 277.73 105.543C277.228 104.149 275.798 100.273 273.353 94.7852C276.189 103.738 278.109 111.965 279.424 119.052C280.409 124.366 281.055 129.042 281.491 132.904C281.636 134.189 281.759 135.387 281.863 136.487C282.026 138.213 282.195 140.045 282.357 141.977C282.518 143.909 282.671 145.941 282.8 148.066C283.147 153.732 283.33 160.059 283.064 166.922C282.931 170.353 282.687 173.919 282.294 177.602C281.706 183.128 280.786 188.921 279.414 194.925C278.5 198.93 277.385 203.029 276.033 207.207C274.682 211.384 273.095 215.641 271.237 219.961C268.189 227.055 264.759 233.508 261.154 239.346C257.549 245.185 253.769 250.41 250.023 255.04C246.277 259.674 242.564 263.715 239.094 267.189C235.624 270.662 232.395 273.566 229.617 275.924C229.608 275.934 229.6 275.942 229.591 275.949C221.987 284.938 212.669 295.294 199.268 312.251C192.323 321.044 179.51 336.437 171.049 354.802C164.361 369.339 155.361 396.446 161.157 437.016C163.779 404.19 175.082 388.085 185.016 379.442C199.027 367.251 216.342 364.653 229.787 344.921C235.356 336.75 238.064 328.864 239.459 323.72C247.705 293.329 261.038 273.402 274.141 264.216C280.08 260.052 286.595 258.027 286.595 258.027C292.186 256.29 297.085 256.014 300.375 256.067C298.505 252.444 297.322 249.36 296.6 247.265Z" fill="#005287"/>
<path d="M250.022 255.039C253.768 250.409 257.547 245.184 261.152 239.345C264.758 233.507 268.188 227.054 271.235 219.96C273.094 215.64 274.681 211.383 276.032 207.205C277.383 203.028 278.498 198.929 279.412 194.924C280.784 188.92 281.704 183.127 282.292 177.601C282.685 173.917 282.929 170.352 283.063 166.921C283.329 160.058 283.145 153.73 282.799 148.065C282.669 145.94 282.516 143.907 282.355 141.976C282.193 140.043 282.024 138.212 281.861 136.486C281.757 135.385 281.635 134.187 281.489 132.902C281.053 129.041 280.408 124.365 279.422 119.05C278.108 111.964 276.189 103.737 273.352 94.7839C270.613 88.6574 266.613 80.5356 261.259 71.6224C261.259 71.6224 237.367 31.8724 183.837 2.96775C181.061 1.46409 175.975 -0.981307 171.512 0.912894C168.993 1.97777 166.364 4.54635 166.144 7.49055C165.961 9.9236 167.476 11.843 168.064 12.64C169.225 14.1908 170.204 15.9274 171.035 17.7744V17.7868C174.288 24.8781 175.278 33.4007 174.96 37.6305C174.912 38.3397 174.813 39.0135 174.679 39.6601C174.067 42.6197 175.609 45.5917 178.469 46.5436C179.178 46.7895 179.912 47.045 180.683 47.3154C183.935 48.4881 224.431 65.6057 248.836 110.089C266.627 142.527 267.494 173.755 266.822 189.1C266.822 189.1 265.013 215.998 253.324 240.893C251.868 243.988 250.303 246.872 250.303 246.872C248.189 250.736 245.853 254.342 242.515 259.259C238.516 265.152 234.408 270.261 229.616 275.923C232.395 273.564 235.623 270.66 239.093 267.187C242.564 263.715 246.276 259.672 250.022 255.039Z" fill="#00AEEF"/>
<path d="M147.81 228.085C170.645 228.085 189.158 209.575 189.158 186.737C189.158 163.898 170.645 145.391 147.81 145.391C124.974 145.391 106.461 163.901 106.461 186.737C106.461 209.572 124.973 228.085 147.81 228.085Z" fill="#005287"/>
<path d="M201.34 394.348C192.984 394.348 186.211 401.123 186.211 409.478C186.211 417.832 192.984 424.606 201.34 424.606C209.696 424.606 216.469 417.832 216.469 409.478C216.469 401.123 209.695 394.348 201.34 394.348Z" fill="#005287"/>
<path d="M182.824 427.355C177.489 427.355 173.164 431.681 173.164 437.015C173.164 442.35 177.489 446.675 182.824 446.675C188.159 446.675 192.484 442.35 192.484 437.015C192.484 431.681 188.159 427.355 182.824 427.355Z" fill="#005287"/>
<path d="M374.028 396.805H356.663C355.962 396.805 355.345 397.052 354.878 397.517C354.409 397.985 354.16 398.601 354.16 399.305C354.16 400.01 354.409 400.629 354.876 401.094C355.344 401.563 355.962 401.81 356.663 401.81H362.73V421.41C362.73 422.133 362.994 422.783 363.494 423.28C363.994 423.778 364.639 424.044 365.362 424.044C366.084 424.044 366.73 423.779 367.23 423.28C367.73 422.782 367.993 422.133 367.993 421.41V401.81H374.027C374.729 401.81 375.346 401.562 375.813 401.098C376.281 400.629 376.53 400.01 376.53 399.305C376.53 398.601 376.281 397.985 375.815 397.52C375.346 397.051 374.728 396.805 374.028 396.805Z" fill="#00AEEF"/>
<path d="M400.591 412.882C401.74 412.185 402.664 411.27 403.348 410.156C404.139 408.862 404.541 407.375 404.541 405.734C404.541 403.994 404.143 402.433 403.355 401.098C402.566 399.763 401.455 398.7 400.055 397.941C398.669 397.189 397.064 396.805 395.286 396.805H389.444C388.729 396.805 388.087 397.059 387.587 397.542C387.08 398.033 386.812 398.686 386.812 399.438V421.41C386.812 422.133 387.076 422.782 387.576 423.28C388.594 424.294 390.381 424.261 391.34 423.269C391.829 422.763 392.076 422.137 392.076 421.41V414.273H395.368L400.652 422.786C400.916 423.214 401.254 423.534 401.652 423.741C402.035 423.94 402.462 424.043 402.916 424.043C403.959 424.043 404.776 423.567 405.217 422.701C405.522 422.107 405.733 421.155 405.016 420.004L400.591 412.882ZM398.905 407.548C398.56 408.091 398.099 408.5 397.494 408.799C396.875 409.109 396.131 409.267 395.286 409.267H392.076V401.809H395.286C396.116 401.809 396.85 401.979 397.464 402.311C398.075 402.643 398.542 403.089 398.888 403.679C399.236 404.273 399.406 404.944 399.406 405.733C399.406 406.423 399.242 407.017 398.905 407.548Z" fill="#00AEEF"/>
<path d="M427.399 398.557C426.981 397.428 426.101 396.805 424.924 396.805C423.812 396.805 422.94 397.41 422.464 398.52L413.35 420.281C412.961 421.152 413.016 422.03 413.51 422.823C414.261 424.025 415.79 424.427 417.079 423.652C417.544 423.379 417.896 422.97 418.138 422.417L419.757 418.459H430.118L431.708 422.409C431.912 422.922 432.252 423.331 432.713 423.619C433.157 423.899 433.637 424.043 434.142 424.043C435.096 424.043 435.859 423.641 436.348 422.881C436.827 422.136 436.898 421.273 436.54 420.365L427.399 398.557ZM421.669 413.783L424.979 405.694L428.234 413.783H421.669Z" fill="#00AEEF"/>
<path d="M466.471 396.805C465.906 396.805 465.427 396.923 465.053 397.155C464.656 397.398 464.339 397.797 464.077 398.387L456.63 415.926L449.327 398.391C448.897 397.369 448.034 396.805 446.898 396.805C445.515 396.805 444.921 397.58 444.69 398.045C444.325 398.775 444.349 399.649 444.768 400.66L454.284 422.421C454.762 423.469 455.608 424.044 456.669 424.044C457.242 424.044 457.742 423.889 458.159 423.579C458.542 423.295 458.845 422.901 459.059 422.406L468.658 400.386C469.145 399.339 468.924 398.513 468.651 398C468.413 397.553 467.812 396.805 466.471 396.805Z" fill="#00AEEF"/>
<path d="M496.688 401.81C497.429 401.81 498.051 401.581 498.53 401.135C499.024 400.674 499.286 400.054 499.286 399.339C499.286 398.609 499.029 397.978 498.541 397.506C498.062 397.048 497.422 396.805 496.687 396.805H482.014C481.299 396.805 480.657 397.059 480.157 397.542C479.65 398.033 479.383 398.686 479.383 399.438V421.41C479.383 422.133 479.647 422.782 480.146 423.28C480.646 423.778 481.292 424.043 482.014 424.043H496.687C497.421 424.043 498.061 423.8 498.542 423.339C499.029 422.87 499.286 422.24 499.286 421.509C499.286 420.794 499.024 420.174 498.531 419.717C498.05 419.267 497.428 419.038 496.687 419.038H484.646V412.812H493.018C493.771 412.812 494.398 412.573 494.874 412.108C495.361 411.639 495.617 411.02 495.617 410.311C495.617 409.6 495.36 408.98 494.874 408.512C494.396 408.051 493.754 407.807 493.018 407.807H484.646V401.81H496.688Z" fill="#00AEEF"/>
<path d="M526.585 418.78H515.779V399.437C515.779 398.714 515.516 398.065 515.016 397.567C514.029 396.586 512.323 396.557 511.311 397.567C510.811 398.065 510.547 398.714 510.547 399.437V421.409C510.547 422.136 510.794 422.763 511.283 423.268C511.771 423.773 512.417 424.042 513.147 424.042H526.584C527.307 424.042 527.952 423.777 528.452 423.279C528.952 422.78 529.216 422.132 529.216 421.409C529.216 420.686 528.952 420.041 528.452 419.542C527.952 419.044 527.307 418.78 526.585 418.78Z" fill="#00AEEF"/>
<path d="M575.44 417.006L577.502 414.83C577.987 414.28 578.225 413.702 578.21 413.104C578.19 412.499 577.91 411.942 577.375 411.44C576.613 410.732 575.942 410.739 575.518 410.869C575.071 411.002 574.636 411.3 574.194 411.772L572.25 413.823L567.832 409.415C568.478 408.858 569.02 408.342 569.472 407.848C570.149 407.114 570.66 406.339 570.995 405.549C571.335 404.745 571.506 403.846 571.506 402.875C571.506 401.629 571.2 400.482 570.593 399.467C569.986 398.46 569.152 397.66 568.114 397.084C566.088 395.963 563.183 395.934 561.069 397.04C560.014 397.593 559.171 398.368 558.563 399.342C557.95 400.323 557.64 401.437 557.64 402.65C557.64 403.716 557.865 404.742 558.312 405.697C558.749 406.623 559.376 407.515 560.189 408.349L561.124 409.282C559.739 410.437 558.59 411.558 557.699 412.628C556.562 413.982 555.984 415.531 555.984 417.224C555.984 418.717 556.32 420.023 556.982 421.107C557.651 422.207 558.598 423.059 559.793 423.637C560.957 424.209 562.309 424.497 563.81 424.497C565.709 424.497 567.417 424.04 568.881 423.14C570.083 422.402 571.22 421.472 572.252 420.384L575.118 423.246C576.177 424.302 577.476 424.302 578.532 423.246C579.098 422.682 579.339 422.085 579.255 421.469C579.179 420.956 578.901 420.465 578.403 419.964L575.44 417.006ZM562.905 401.286C563.311 400.895 563.851 400.707 564.557 400.707C565.327 400.707 565.878 400.903 566.247 401.305C566.638 401.736 566.828 402.227 566.828 402.784C566.809 403.389 566.666 403.983 566.396 404.554C566.234 404.905 565.817 405.491 564.771 406.362L563.635 405.23C563.152 404.746 562.807 404.282 562.608 403.847C562.416 403.434 562.32 403.01 562.32 402.585C562.32 402.087 562.507 401.67 562.905 401.286ZM566.706 419.064C565.891 419.57 564.943 419.817 563.811 419.817C562.835 419.817 562.12 419.596 561.627 419.146C561.155 418.707 560.924 418.039 560.924 417.095C560.924 416.53 561.054 416.01 561.319 415.505C561.614 414.944 562.025 414.391 562.542 413.856C563.04 413.34 563.595 412.834 564.194 412.344L569.047 417.183C568.257 417.961 567.471 418.593 566.706 419.064Z" fill="#00AEEF"/>
<path d="M623.148 396.805H608.475C607.76 396.805 607.118 397.059 606.618 397.542C606.111 398.033 605.844 398.686 605.844 399.438V421.41C605.844 422.133 606.108 422.782 606.607 423.28C607.107 423.778 607.753 424.043 608.475 424.043C609.2 424.043 609.846 423.778 610.345 423.28C610.845 422.782 611.109 422.133 611.109 421.41V412.812H619.48C620.232 412.812 620.859 412.573 621.335 412.108C621.822 411.639 622.08 411.02 622.08 410.311C622.08 409.603 621.822 408.98 621.335 408.512C620.857 408.051 620.216 407.807 619.48 407.807H611.109V401.81H623.148C623.893 401.81 624.515 401.581 624.99 401.135C625.485 400.674 625.746 400.054 625.746 399.339C625.746 398.609 625.49 397.978 625.003 397.509C624.526 397.048 623.884 396.805 623.148 396.805Z" fill="#00AEEF"/>
<path d="M650.392 412.882C651.541 412.185 652.464 411.27 653.148 410.156C653.94 408.862 654.342 407.375 654.342 405.734C654.342 403.994 653.943 402.433 653.156 401.098C652.366 399.763 651.256 398.7 649.856 397.941C648.47 397.189 646.865 396.805 645.087 396.805H639.245C638.53 396.805 637.888 397.059 637.388 397.542C636.881 398.033 636.613 398.686 636.613 399.438V421.41C636.613 422.133 636.877 422.782 637.377 423.28C638.397 424.294 640.182 424.261 641.141 423.269C641.63 422.763 641.877 422.137 641.877 421.41V414.273H645.169L650.453 422.786C650.717 423.214 651.055 423.534 651.453 423.741C651.836 423.94 652.263 424.043 652.716 424.043C653.76 424.043 654.577 423.567 655.018 422.701C655.322 422.107 655.534 421.155 654.817 420.004L650.392 412.882ZM648.706 407.548C648.361 408.091 647.9 408.5 647.295 408.799C646.676 409.109 645.932 409.267 645.087 409.267H641.877V401.809H645.087C645.917 401.809 646.651 401.979 647.265 402.311C647.875 402.643 648.342 403.089 648.689 403.679C649.037 404.273 649.207 404.944 649.207 405.733C649.207 406.423 649.043 407.017 648.706 407.548Z" fill="#00AEEF"/>
<path d="M682.871 401.81C683.613 401.81 684.234 401.581 684.714 401.135C685.208 400.674 685.47 400.054 685.47 399.339C685.47 398.609 685.213 397.978 684.725 397.506C684.245 397.048 683.605 396.805 682.871 396.805H668.198C667.483 396.805 666.841 397.059 666.341 397.542C665.834 398.033 665.566 398.686 665.566 399.438V421.41C665.566 422.133 665.83 422.782 666.33 423.28C666.83 423.778 667.476 424.043 668.198 424.043H682.871C683.605 424.043 684.245 423.8 684.726 423.339C685.213 422.87 685.469 422.24 685.469 421.509C685.469 420.794 685.207 420.174 684.715 419.717C684.233 419.267 683.612 419.038 682.87 419.038H670.829V412.812H679.202C679.954 412.812 680.581 412.573 681.057 412.108C681.544 411.639 681.8 411.02 681.8 410.311C681.8 409.6 681.544 408.98 681.057 408.512C680.579 408.051 679.938 407.807 679.202 407.807H670.829V401.81H682.871Z" fill="#00AEEF"/>
<path d="M714.032 401.81C714.773 401.81 715.395 401.581 715.874 401.135C716.368 400.674 716.63 400.054 716.63 399.339C716.63 398.609 716.373 397.978 715.885 397.506C715.405 397.048 714.765 396.805 714.031 396.805H699.358C698.643 396.805 698.001 397.059 697.501 397.542C696.994 398.033 696.727 398.686 696.727 399.438V421.41C696.727 422.133 696.99 422.782 697.49 423.28C697.99 423.778 698.636 424.043 699.358 424.043H714.031C714.765 424.043 715.405 423.8 715.886 423.339C716.373 422.87 716.629 422.24 716.629 421.509C716.629 420.794 716.368 420.174 715.875 419.717C715.394 419.267 714.772 419.038 714.031 419.038H701.989V412.812H710.362C711.114 412.812 711.742 412.573 712.217 412.108C712.704 411.639 712.96 411.02 712.96 410.311C712.96 409.6 712.704 408.98 712.217 408.512C711.74 408.051 711.098 407.807 710.362 407.807H701.989V401.81H714.032Z" fill="#00AEEF"/>
<path d="M746.121 400.641C744.907 399.416 743.461 398.457 741.827 397.801C740.193 397.14 738.366 396.805 736.394 396.805H730.518C729.803 396.805 729.161 397.059 728.661 397.542C728.154 398.033 727.887 398.686 727.887 399.438V421.41C727.887 422.133 728.151 422.782 728.65 423.28C729.15 423.778 729.796 424.043 730.518 424.043H736.394C738.366 424.043 740.193 423.708 741.827 423.047C743.461 422.391 744.907 421.432 746.121 420.207C747.334 418.983 748.278 417.519 748.926 415.866C749.571 414.217 749.899 412.381 749.899 410.407C749.899 408.434 749.571 406.605 748.924 404.967C748.277 403.322 747.334 401.866 746.121 400.641ZM743.68 414.97C742.966 416.272 741.972 417.312 740.731 418.053C739.489 418.791 738.029 419.168 736.394 419.168H733.15V401.681H736.394C738.035 401.681 739.496 402.05 740.735 402.78C741.976 403.514 742.969 404.54 743.682 405.834C744.4 407.136 744.765 408.674 744.765 410.408C744.765 412.123 744.399 413.657 743.68 414.97Z" fill="#00AEEF"/>
<path d="M762.517 397.541C762.01 398.032 761.742 398.685 761.742 399.437V421.409C761.742 422.132 762.006 422.781 762.506 423.279C763.006 423.777 763.651 424.043 764.374 424.043C765.125 424.043 765.781 423.773 766.27 423.268C766.758 422.763 767.006 422.136 767.006 421.409V399.437C767.006 398.692 766.747 398.04 766.259 397.552C765.296 396.59 763.536 396.556 762.517 397.541Z" fill="#00AEEF"/>
<path d="M799.494 396.805C798.93 396.805 798.45 396.923 798.076 397.155C797.679 397.398 797.362 397.797 797.1 398.387L789.654 415.926L782.35 398.391C781.921 397.369 781.058 396.805 779.921 396.805C778.538 396.805 777.945 397.58 777.714 398.045C777.348 398.775 777.372 399.649 777.791 400.66L787.307 422.421C787.785 423.469 788.631 424.044 789.692 424.044C790.266 424.044 790.765 423.889 791.182 423.579C791.566 423.295 791.868 422.901 792.082 422.406L801.682 400.386C802.169 399.339 801.947 398.513 801.675 398C801.437 397.553 800.835 396.805 799.494 396.805Z" fill="#00AEEF"/>
<path d="M813.185 397.541C812.678 398.032 812.41 398.685 812.41 399.437V421.409C812.41 422.132 812.674 422.781 813.174 423.279C813.674 423.777 814.319 424.043 815.042 424.043C815.793 424.043 816.449 423.773 816.938 423.268C817.426 422.763 817.674 422.136 817.674 421.409V399.437C817.674 398.692 817.415 398.04 816.927 397.552C815.964 396.59 814.204 396.556 813.185 397.541Z" fill="#00AEEF"/>
<path d="M848.595 397.543C848.087 398.033 847.82 398.686 847.82 399.439V414.362L835.335 397.756C834.326 396.565 832.491 396.524 831.462 397.554C830.973 398.041 830.715 398.693 830.715 399.439V421.41C830.715 422.137 830.962 422.764 831.451 423.269C832.441 424.291 834.239 424.276 835.211 423.269C835.699 422.764 835.947 422.137 835.947 421.41V406.516L848.414 423.103C848.674 423.432 849.011 423.679 849.404 423.83C849.761 423.97 850.115 424.044 850.454 424.044C851.208 424.044 851.861 423.771 852.346 423.258C852.815 422.753 853.052 422.134 853.052 421.41V399.439C853.052 398.701 852.803 398.052 852.331 397.565C851.387 396.587 849.615 396.554 848.595 397.543Z" fill="#00AEEF"/>
<path d="M872.514 404.04C873.284 403.225 874.183 402.576 875.192 402.111C877.313 401.137 880.039 401.296 881.416 401.893C882.186 402.225 882.939 402.708 883.674 403.347C884.227 403.804 884.836 403.985 885.5 403.981C886.151 403.952 886.736 403.701 887.186 403.262C887.661 402.805 887.914 402.211 887.914 401.547C887.914 401.282 887.89 401.046 887.842 400.835C887.785 400.581 887.672 400.33 887.501 400.083C887.346 399.858 887.139 399.651 886.92 399.486C885.625 398.423 884.312 397.649 883.02 397.184C880.322 396.214 876.224 396.173 873.085 397.567C871.467 398.283 870.031 399.286 868.81 400.547C867.596 401.809 866.635 403.299 865.955 404.97C865.272 406.644 864.926 408.474 864.926 410.406C864.926 412.357 865.273 414.205 865.953 415.891C866.634 417.573 867.594 419.066 868.812 420.331C870.035 421.596 871.48 422.596 873.109 423.301C874.743 424.009 876.523 424.367 878.4 424.367C879.971 424.367 881.494 424.116 882.927 423.618C884.373 423.117 885.729 422.345 886.979 421.306C887.246 421.066 887.451 420.796 887.584 420.505L887.816 420.549V411.642C887.816 410.9 887.567 410.255 887.095 409.768C886.616 409.27 885.967 409.008 885.216 409.008H879.147C878.441 409.008 877.829 409.225 877.325 409.661C876.796 410.126 876.515 410.741 876.515 411.446C876.515 412.154 876.798 412.77 877.329 413.231C877.832 413.663 878.443 413.884 879.147 413.884H882.682V418.178C882.197 418.458 881.7 418.694 881.194 418.889C879.324 419.612 877.048 419.557 875.188 418.716C874.179 418.259 873.281 417.617 872.515 416.805C871.748 415.986 871.14 415.024 870.71 413.936C870.278 412.855 870.061 411.664 870.061 410.406C870.061 409.166 870.278 407.99 870.71 406.905C871.14 405.821 871.747 404.859 872.514 404.04Z" fill="#00AEEF"/>
<path d="M934.813 396.805H917.448C916.747 396.805 916.13 397.052 915.663 397.517C915.194 397.985 914.945 398.601 914.945 399.305C914.945 400.01 915.194 400.629 915.661 401.094C916.129 401.563 916.747 401.81 917.448 401.81H923.515V421.41C923.515 422.133 923.779 422.783 924.279 423.28C924.779 423.778 925.424 424.044 926.147 424.044C926.869 424.044 927.515 423.779 928.015 423.28C928.515 422.782 928.779 422.133 928.779 421.41V401.81H934.813C935.514 401.81 936.131 401.562 936.598 401.098C937.067 400.629 937.316 400.01 937.316 399.305C937.316 398.601 937.067 397.985 936.6 397.52C936.132 397.051 935.514 396.805 934.813 396.805Z" fill="#00AEEF"/>
<path d="M970.215 400.41C968.985 399.167 967.509 398.19 965.827 397.508C962.469 396.143 958.054 396.143 954.681 397.508C952.986 398.19 951.507 399.167 950.286 400.414C949.067 401.657 948.11 403.144 947.439 404.829C946.769 406.515 946.43 408.392 946.43 410.406C946.43 412.423 946.769 414.301 947.439 415.994C948.106 417.694 949.065 419.188 950.286 420.431C951.507 421.678 952.986 422.655 954.681 423.337C956.368 424.02 958.245 424.366 960.261 424.366C962.275 424.366 964.149 424.019 965.827 423.337C967.509 422.655 968.984 421.678 970.214 420.435C971.446 419.192 972.413 417.698 973.084 415.994C973.752 414.301 974.091 412.42 974.091 410.406C974.091 408.392 973.752 406.518 973.084 404.829C972.409 403.14 971.445 401.653 970.215 400.41ZM968.322 413.995C967.903 415.083 967.299 416.042 966.527 416.842C965.751 417.647 964.824 418.285 963.765 418.742C961.653 419.649 958.865 419.649 956.757 418.742C955.7 418.285 954.778 417.65 954.013 416.846C953.249 416.045 952.644 415.083 952.213 413.987C951.783 412.892 951.564 411.686 951.564 410.406C951.564 409.126 951.783 407.92 952.213 406.824C952.642 405.729 953.25 404.77 954.015 403.966C954.775 403.165 955.695 402.539 956.749 402.092C957.808 401.646 958.99 401.417 960.261 401.417C961.529 401.417 962.712 401.646 963.772 402.092C964.829 402.539 965.755 403.169 966.525 403.966C967.298 404.774 967.903 405.733 968.322 406.817C968.742 407.916 968.956 409.122 968.956 410.406C968.956 411.689 968.742 412.896 968.322 413.995Z" fill="#00AEEF"/>
<path d="M1004.3 397.542C1003.79 398.032 1003.53 398.685 1003.53 399.437V414.593C1003.53 415.582 1003.29 416.426 1002.79 417.175C1002.29 417.924 1001.59 418.525 1000.7 418.956C998.83 419.852 996.027 419.823 994.142 418.949C993.209 418.514 992.473 417.912 991.958 417.16C991.445 416.415 991.196 415.574 991.196 414.593V399.437C991.196 398.692 990.938 398.04 990.45 397.552C989.487 396.59 987.728 396.556 986.708 397.541C986.201 398.032 985.934 398.685 985.934 399.437V414.593C985.934 416.525 986.439 418.274 987.437 419.79C988.427 421.291 989.816 422.478 991.564 423.316C993.283 424.142 995.278 424.562 997.491 424.562C999.645 424.562 1001.59 424.142 1003.26 423.312C1004.97 422.471 1006.32 421.284 1007.29 419.779C1008.27 418.27 1008.76 416.526 1008.76 414.593V399.437C1008.76 398.7 1008.51 398.051 1008.04 397.564C1007.1 396.59 1005.32 396.557 1004.3 397.542Z" fill="#00AEEF"/>
<path d="M1035.58 412.882C1036.72 412.185 1037.65 411.27 1038.33 410.156C1039.12 408.862 1039.53 407.375 1039.53 405.734C1039.53 403.994 1039.13 402.433 1038.34 401.098C1037.55 399.763 1036.44 398.7 1035.04 397.941C1033.65 397.189 1032.05 396.805 1030.27 396.805H1024.43C1023.71 396.805 1023.07 397.059 1022.57 397.542C1022.06 398.033 1021.8 398.686 1021.8 399.438V421.41C1021.8 422.133 1022.06 422.782 1022.56 423.28C1023.58 424.294 1025.37 424.261 1026.32 423.269C1026.81 422.763 1027.06 422.137 1027.06 421.41V414.273H1030.35L1035.64 422.786C1035.9 423.214 1036.24 423.534 1036.64 423.741C1037.02 423.94 1037.45 424.043 1037.9 424.043C1038.94 424.043 1039.76 423.567 1040.2 422.701C1040.51 422.107 1040.72 421.155 1040 420.004L1035.58 412.882ZM1033.89 407.548C1033.54 408.091 1033.08 408.5 1032.48 408.799C1031.86 409.109 1031.12 409.267 1030.27 409.267H1027.06V401.809H1030.27C1031.1 401.809 1031.83 401.979 1032.45 402.311C1033.06 402.643 1033.53 403.089 1033.87 403.679C1034.22 404.273 1034.39 404.944 1034.39 405.733C1034.39 406.423 1034.23 407.017 1033.89 407.548Z" fill="#00AEEF"/>
<path d="M1078.73 407.621C1077.16 407.463 1075.96 407.186 1075.17 406.798C1074.45 406.456 1073.97 406.068 1073.73 405.644C1073.47 405.19 1073.35 404.733 1073.35 404.242C1073.35 403.309 1073.71 402.667 1074.49 402.221C1075.39 401.712 1076.53 401.454 1077.9 401.454C1078.72 401.435 1079.49 401.546 1080.09 401.767C1080.65 401.978 1081.15 402.265 1081.55 402.615C1081.96 402.973 1082.32 403.423 1082.62 403.973C1082.98 404.585 1083.54 405.024 1084.22 405.234C1084.96 405.474 1085.7 405.386 1086.35 404.969C1086.95 404.586 1087.32 404.01 1087.41 403.306C1087.49 402.66 1087.32 401.997 1086.91 401.351C1086.32 400.388 1085.62 399.54 1084.81 398.828C1083.99 398.105 1083.02 397.533 1081.93 397.124C1080.85 396.722 1079.57 396.516 1078.15 396.516C1076.35 396.516 1074.69 396.799 1073.22 397.357C1071.69 397.936 1070.46 398.795 1069.56 399.92C1068.62 401.082 1068.15 402.506 1068.15 404.147C1068.15 406.375 1069.03 408.264 1070.78 409.765C1072.47 411.21 1074.77 412.081 1077.63 412.358C1079.45 412.55 1080.75 413.026 1081.49 413.771C1082.21 414.501 1082.56 415.29 1082.56 416.19C1082.56 416.869 1082.37 417.411 1081.98 417.854C1081.55 418.352 1080.96 418.735 1080.24 419.004C1078.78 419.547 1076.9 419.587 1075.33 419.056C1074.59 418.813 1073.96 418.488 1073.45 418.097C1072.98 417.739 1072.64 417.352 1072.44 416.95C1072.16 416.353 1071.73 415.899 1071.18 415.604C1070.6 415.29 1069.99 415.202 1069.39 415.327C1068.37 415.534 1067.86 416.095 1067.61 416.526C1067.23 417.179 1067.21 417.943 1067.54 418.636C1068.03 419.791 1068.81 420.812 1069.85 421.683C1070.87 422.538 1072.07 423.206 1073.43 423.671C1074.78 424.136 1076.21 424.372 1077.7 424.372C1078.94 424.372 1080.17 424.206 1081.34 423.885C1082.53 423.553 1083.62 423.04 1084.56 422.362C1085.52 421.668 1086.3 420.794 1086.88 419.765C1087.46 418.721 1087.76 417.482 1087.76 416.091C1087.76 413.687 1086.93 411.71 1085.29 410.219C1083.71 408.774 1081.5 407.898 1078.73 407.621Z" fill="#00AEEF"/>
<path d="M1116.77 401.81C1117.52 401.81 1118.14 401.581 1118.62 401.135C1119.11 400.674 1119.37 400.054 1119.37 399.339C1119.37 398.609 1119.12 397.978 1118.63 397.506C1118.15 397.048 1117.51 396.805 1116.77 396.805H1102.1C1101.39 396.805 1100.74 397.059 1100.24 397.542C1099.74 398.033 1099.47 398.686 1099.47 399.438V421.41C1099.47 422.133 1099.73 422.782 1100.23 423.28C1100.73 423.778 1101.38 424.043 1102.1 424.043H1116.77C1117.51 424.043 1118.15 423.8 1118.63 423.339C1119.12 422.87 1119.37 422.24 1119.37 421.509C1119.37 420.794 1119.11 420.174 1118.62 419.717C1118.14 419.267 1117.51 419.038 1116.77 419.038H1104.73V412.812H1113.1C1113.86 412.812 1114.48 412.573 1114.96 412.108C1115.45 411.639 1115.7 411.02 1115.7 410.311C1115.7 409.6 1115.45 408.98 1114.96 408.512C1114.48 408.051 1113.84 407.807 1113.1 407.807H1104.73V401.81H1116.77Z" fill="#00AEEF"/>
<path d="M1144.41 412.882C1145.56 412.185 1146.48 411.27 1147.17 410.156C1147.96 408.862 1148.36 407.375 1148.36 405.734C1148.36 403.994 1147.96 402.433 1147.18 401.098C1146.39 399.763 1145.28 398.7 1143.88 397.941C1142.49 397.189 1140.88 396.805 1139.11 396.805H1133.26C1132.55 396.805 1131.91 397.059 1131.41 397.542C1130.9 398.033 1130.63 398.686 1130.63 399.438V421.41C1130.63 422.133 1130.9 422.782 1131.4 423.28C1132.42 424.294 1134.2 424.261 1135.16 423.269C1135.65 422.763 1135.9 422.137 1135.9 421.41V414.273H1139.19L1144.47 422.786C1144.74 423.214 1145.07 423.534 1145.47 423.741C1145.86 423.94 1146.28 424.043 1146.74 424.043C1147.78 424.043 1148.6 423.567 1149.04 422.701C1149.34 422.107 1149.55 421.155 1148.84 420.004L1144.41 412.882ZM1142.73 407.548C1142.38 408.091 1141.92 408.5 1141.31 408.799C1140.7 409.109 1139.95 409.267 1139.11 409.267H1135.9V401.809H1139.11C1139.94 401.809 1140.67 401.979 1141.28 402.311C1141.89 402.643 1142.36 403.089 1142.71 403.679C1143.06 404.273 1143.23 404.944 1143.23 405.733C1143.23 406.423 1143.06 407.017 1142.73 407.548Z" fill="#00AEEF"/>
<path d="M1179.03 396.805C1178.46 396.805 1177.99 396.923 1177.61 397.155C1177.21 397.398 1176.9 397.797 1176.64 398.387L1169.19 415.926L1161.89 398.391C1161.46 397.369 1160.59 396.805 1159.46 396.805C1158.07 396.805 1157.48 397.58 1157.25 398.045C1156.88 398.775 1156.91 399.649 1157.33 400.66L1166.84 422.421C1167.32 423.469 1168.17 424.044 1169.23 424.044C1169.8 424.044 1170.3 423.889 1170.72 423.579C1171.1 423.295 1171.4 422.901 1171.62 422.406L1181.22 400.386C1181.7 399.339 1181.48 398.513 1181.21 398C1180.97 397.553 1180.37 396.805 1179.03 396.805Z" fill="#00AEEF"/>
<path d="M1192.72 397.541C1192.21 398.032 1191.95 398.685 1191.95 399.437V421.409C1191.95 422.132 1192.21 422.781 1192.71 423.279C1193.21 423.777 1193.85 424.043 1194.58 424.043C1195.33 424.043 1195.98 423.773 1196.47 423.268C1196.96 422.763 1197.21 422.136 1197.21 421.409V399.437C1197.21 398.692 1196.95 398.04 1196.46 397.552C1195.5 396.59 1193.74 396.556 1192.72 397.541Z" fill="#00AEEF"/>
<path d="M1216.67 404.041C1217.44 403.226 1218.34 402.576 1219.35 402.111C1221.47 401.138 1224.2 401.297 1225.57 401.894C1226.34 402.226 1227.1 402.709 1227.85 403.362C1228.43 403.812 1229.05 404.014 1229.71 403.963C1230.33 403.911 1230.88 403.679 1231.33 403.262C1231.81 402.812 1232.07 402.222 1232.07 401.547C1232.07 401.282 1232.05 401.046 1232 400.835C1231.94 400.581 1231.83 400.33 1231.66 400.083C1231.5 399.858 1231.3 399.651 1231.08 399.485C1229.78 398.423 1228.47 397.649 1227.18 397.184C1224.48 396.214 1220.38 396.173 1217.24 397.567C1215.62 398.283 1214.19 399.286 1212.97 400.547C1211.75 401.809 1210.79 403.299 1210.11 404.969C1209.43 406.644 1209.08 408.474 1209.08 410.406C1209.08 412.357 1209.43 414.205 1210.11 415.891C1210.79 417.572 1211.75 419.066 1212.97 420.331C1214.19 421.596 1215.64 422.596 1217.26 423.301C1218.9 424.009 1220.68 424.367 1222.56 424.367C1224.13 424.367 1225.65 424.109 1227.08 423.596C1228.51 423.083 1229.86 422.323 1231.18 421.265C1231.44 421.007 1231.64 420.712 1231.77 420.402C1231.9 420.077 1231.97 419.741 1231.97 419.398C1231.97 418.679 1231.75 418.082 1231.32 417.621C1230.9 417.189 1230.36 416.935 1229.76 416.883C1229.16 416.813 1228.56 417.013 1227.97 417.437C1227.14 418.052 1226.26 418.539 1225.35 418.89C1223.48 419.613 1221.2 419.558 1219.34 418.716C1218.33 418.259 1217.44 417.617 1216.67 416.806C1215.9 415.987 1215.3 415.025 1214.87 413.936C1214.43 412.855 1214.22 411.664 1214.22 410.406C1214.22 409.167 1214.43 407.99 1214.87 406.906C1215.3 405.821 1215.9 404.859 1216.67 404.041Z" fill="#00AEEF"/>
<path d="M1261.21 401.81C1261.96 401.81 1262.58 401.581 1263.06 401.135C1263.55 400.674 1263.81 400.054 1263.81 399.339C1263.81 398.609 1263.56 397.978 1263.07 397.506C1262.59 397.048 1261.95 396.805 1261.21 396.805H1246.54C1245.83 396.805 1245.18 397.059 1244.68 397.542C1244.18 398.033 1243.91 398.686 1243.91 399.438V421.41C1243.91 422.133 1244.17 422.782 1244.67 423.28C1245.17 423.778 1245.82 424.043 1246.54 424.043H1261.21C1261.95 424.043 1262.59 423.8 1263.07 423.339C1263.56 422.87 1263.81 422.24 1263.81 421.509C1263.81 420.794 1263.55 420.174 1263.06 419.717C1262.58 419.267 1261.96 419.038 1261.21 419.038H1249.17V412.812H1257.55C1258.3 412.812 1258.93 412.573 1259.4 412.108C1259.89 411.639 1260.14 411.02 1260.14 410.311C1260.14 409.6 1259.89 408.98 1259.4 408.512C1258.92 408.051 1258.28 407.807 1257.55 407.807H1249.17V401.81H1261.21Z" fill="#00AEEF"/>
<path d="M1291.66 410.218C1290.08 408.772 1287.87 407.898 1285.1 407.621C1283.53 407.463 1282.33 407.186 1281.54 406.798C1280.82 406.456 1280.34 406.068 1280.1 405.644C1279.84 405.19 1279.72 404.733 1279.72 404.242C1279.72 403.309 1280.08 402.667 1280.86 402.221C1281.76 401.712 1282.91 401.454 1284.27 401.454C1285.09 401.435 1285.86 401.546 1286.46 401.767C1287.03 401.978 1287.52 402.265 1287.92 402.615C1288.33 402.973 1288.69 403.423 1288.99 403.973C1289.35 404.585 1289.91 405.024 1290.59 405.234C1291.33 405.474 1292.07 405.386 1292.72 404.969C1293.32 404.586 1293.69 404.01 1293.78 403.306C1293.86 402.66 1293.69 401.997 1293.28 401.351C1292.69 400.388 1291.99 399.54 1291.18 398.828C1290.36 398.105 1289.4 397.533 1288.31 397.124C1287.22 396.722 1285.94 396.516 1284.52 396.516C1282.72 396.516 1281.06 396.799 1279.59 397.357C1278.06 397.936 1276.83 398.795 1275.93 399.92C1274.99 401.082 1274.52 402.506 1274.52 404.147C1274.52 406.375 1275.41 408.264 1277.15 409.765C1278.84 411.21 1281.15 412.081 1284 412.358C1285.83 412.55 1287.12 413.026 1287.86 413.771C1288.58 414.501 1288.93 415.29 1288.93 416.19C1288.93 416.869 1288.74 417.411 1288.35 417.854C1287.92 418.352 1287.33 418.735 1286.61 419.004C1285.15 419.547 1283.27 419.587 1281.7 419.056C1280.96 418.813 1280.33 418.488 1279.82 418.097C1279.35 417.739 1279.01 417.352 1278.82 416.95C1278.53 416.353 1278.1 415.899 1277.56 415.604C1276.97 415.29 1276.36 415.202 1275.76 415.327C1274.75 415.534 1274.23 416.095 1273.98 416.526C1273.6 417.179 1273.58 417.943 1273.91 418.636C1274.4 419.791 1275.18 420.812 1276.22 421.683C1277.24 422.538 1278.44 423.206 1279.8 423.671C1281.15 424.136 1282.59 424.372 1284.07 424.372C1285.31 424.372 1286.54 424.206 1287.71 423.885C1288.9 423.553 1289.99 423.04 1290.93 422.362C1291.89 421.668 1292.67 420.794 1293.25 419.765C1293.83 418.721 1294.13 417.482 1294.13 416.091C1294.13 413.687 1293.3 411.708 1291.66 410.218Z" fill="#00AEEF"/>
<defs>
<linearGradient id="paint0_linear_2092_84" x1="824.144" y1="357.315" x2="824.144" y2="113.688" gradientUnits="userSpaceOnUse">
<stop stop-color="#005287"/>
<stop offset="0.2355" stop-color="#00548A"/>
<stop offset="0.4247" stop-color="#005D94"/>
<stop offset="0.5978" stop-color="#006CA5"/>
<stop offset="0.7612" stop-color="#0081BC"/>
<stop offset="0.9165" stop-color="#009CDB"/>
<stop offset="1" stop-color="#00AEEF"/>
</linearGradient>
</defs>
</svg>
