<svg id="visual" viewBox="0 0 900 200" width="900" height="200" xmlns="http://www.w3.org/2000/svg" xmlns:xlink="http://www.w3.org/1999/xlink" version="1.1"><rect x="0" y="0" width="900" height="200" fill="#002233"></rect><path d="M0 110L21.5 118.7C43 127.3 86 144.7 128.8 153.8C171.7 163 214.3 164 257.2 155.3C300 146.7 343 128.3 385.8 121.2C428.7 114 471.3 118 514.2 127.7C557 137.3 600 152.7 642.8 157.2C685.7 161.7 728.3 155.3 771.2 145.8C814 136.3 857 123.7 878.5 117.3L900 111L900 201L878.5 201C857 201 814 201 771.2 201C728.3 201 685.7 201 642.8 201C600 201 557 201 514.2 201C471.3 201 428.7 201 385.8 201C343 201 300 201 257.2 201C214.3 201 171.7 201 128.8 201C86 201 43 201 21.5 201L0 201Z" fill="#0066FF" stroke-linecap="round" stroke-linejoin="miter"></path></svg>